<?xml version="1.0" encoding="UTF-8"?>
<svg xmlns="http://www.w3.org/2000/svg" xmlns:xlink="http://www.w3.org/1999/xlink" width="20px" height="20px" viewBox="0 0 20 20" version="1.1">
<g id="surface1">
<path style=" stroke:none;fill-rule:nonzero;fill:rgb(12.941176%,12.941176%,12.941176%);fill-opacity:1;" d="M 15.207031 2.5 C 16.472656 2.5 17.5 3.527344 17.5 4.792969 L 17.5 15.207031 C 17.5 16.472656 16.472656 17.5 15.207031 17.5 L 4.792969 17.5 C 3.527344 17.5 2.5 16.472656 2.5 15.207031 L 2.5 4.792969 C 2.5 3.527344 3.527344 2.5 4.792969 2.5 Z M 15.207031 3.75 L 4.792969 3.75 C 4.214844 3.75 3.75 4.214844 3.75 4.792969 L 3.75 15.207031 C 3.75 15.785156 4.214844 16.25 4.792969 16.25 L 15.207031 16.25 C 15.785156 16.25 16.25 15.785156 16.25 15.207031 L 16.25 4.792969 C 16.25 4.214844 15.785156 3.75 15.207031 3.75 Z M 8.332031 12.03125 L 13.726562 6.640625 C 13.96875 6.398438 14.363281 6.398438 14.609375 6.640625 C 14.832031 6.863281 14.851562 7.210938 14.667969 7.457031 L 14.609375 7.523438 L 8.773438 13.359375 C 8.554688 13.582031 8.207031 13.601562 7.960938 13.417969 L 7.890625 13.359375 L 5.390625 10.859375 C 5.148438 10.613281 5.148438 10.21875 5.390625 9.976562 C 5.613281 9.753906 5.960938 9.734375 6.207031 9.914062 L 6.273438 9.976562 L 8.332031 12.03125 L 13.726562 6.640625 Z M 8.332031 12.03125 "/>
</g>
</svg>
